<?xml version="1.0" encoding="utf-8"?>
<!-- Generator: Adobe Illustrator 22.1.0, SVG Export Plug-In . SVG Version: 6.00 Build 0)  -->
<svg version="1.1" id="Layer_1" xmlns="http://www.w3.org/2000/svg" xmlns:xlink="http://www.w3.org/1999/xlink" x="0px" y="0px"
	 viewBox="0 0 512 512" style="enable-background:new 0 0 512 512;" xml:space="preserve">
<g>
	<path d="M384.6,79.3c56.2,40.2,92.9,105.9,92.9,180.3c0,122.1-98.9,221.2-221,221.4c-121.9,0.3-221.7-99.1-221.9-221.1
		c-0.1-74.4,36.5-140.3,92.7-180.5c10.4-7.4,25-4.3,31.2,6.9l14.1,25.1c5.3,9.4,2.8,21.2-5.9,27.7c-37.1,27.5-60.7,71.1-60.7,120.4
		c-0.1,82.4,66.5,150.1,150,150.1c81.8,0,150.5-66.2,150-151c-0.3-46.2-22.1-90.9-60.8-119.6c-8.7-6.4-11.1-18.3-5.8-27.6l14.1-25.1
		C359.7,75.2,374.2,71.9,384.6,79.3L384.6,79.3z M291.7,266.7V52.4c0-11.9-9.6-21.4-21.4-21.4h-28.6c-11.9,0-21.4,9.6-21.4,21.4
		v214.3c0,11.9,9.6,21.4,21.4,21.4h28.6C282.2,288.1,291.7,278.6,291.7,266.7z"/>
</g>
</svg>
